Coordinates
version=1
nRows=11
nColumns=36
inDegrees=yes

Units are S.I. units (second, meters, Newtons, ...)
If the header above contains a line with 'inDegrees', this indicates whether rotational values are in degrees (yes) or radians (no).

endheader
time	pelvis_tilt	pelvis_list	pelvis_rotation	pelvis_tx	pelvis_ty	pelvis_tz	hip_flexion_r	hip_adduction_r	hip_rotation_r	knee_angle_r	knee_angle_r_beta	ankle_angle_r	subtalar_angle_r	mtp_angle_r	hip_flexion_l	hip_adduction_l	hip_rotation_l	knee_angle_l	knee_angle_l_beta	ankle_angle_l	subtalar_angle_l	mtp_angle_l	lumbar_extension	lumbar_bending	lumbar_rotation	arm_flex_r	arm_add_r	arm_rot_r	elbow_flex_r	pro_sup_r	arm_flex_l	arm_add_l	arm_rot_l	elbow_flex_l	pro_sup_l
      3.04583330	    -11.00519962	      1.29629905	      1.57968616	      0.59291563	      0.94352959	     -0.20636814	      6.28308643	     -8.43805649	     -7.61012303	     12.27774608	      0.21428709	      7.35801610	    -12.73212141	     -7.49999987	      9.31691806	     -1.16989572	     -7.29014284	     14.73982657	      0.25725850	      4.69611501	    -17.68493774	     -7.49999987	     -3.43063535	     -4.01772801	     -5.39929783	     22.23045534	    -49.99592520	    -27.99204062	     47.39907580	     93.07771772	    -43.74755459	    -25.64050800	    -70.94464311	     38.63590547	     81.87485033
      3.05000000	    -10.94402935	      1.33463099	      1.60005671	      0.59666883	      0.94578627	     -0.21058601	      5.98221769	     -8.55098551	     -7.06066396	     12.50597030	      0.21827036	      8.66507326	    -13.49920170	     -7.49999987	      9.30280017	     -0.95504551	     -6.87469911	     15.22052019	      0.26564819	      5.91835479	    -18.16805727	     -7.49999987	     -3.44847122	     -3.86180960	     -5.05178359	     22.31035474	    -50.07635887	    -28.08105190	     47.81128029	     93.16483691	    -43.44848965	    -25.09144118	    -70.92630277	     38.56496492	     81.98075049
      3.05416670	    -10.88422678	      1.38012137	      1.65098039	      0.59687617	      0.93771563	     -0.21415222	      5.87733476	     -8.77865006	     -6.71539501	     13.04149989	      0.22761711	      9.79689487	    -14.39967269	     -7.49999987	      9.47080015	     -0.72443599	     -6.75421768	     16.01693078	      0.27954818	      7.15145426	    -18.67121674	     -7.49999987	     -3.49481628	     -3.59699601	     -4.65710756	     22.35049905	    -50.43193701	    -28.26327051	     48.31189861	     93.04568957	    -43.05079406	    -24.37619096	    -71.05070552	     38.83248422	     81.91892902
      3.05833330	    -10.90304572	      1.47617672	      1.62041863	      0.59805028	      0.95122487	     -0.21216776	      5.73009787	     -8.83499413	     -5.87799036	     13.09327183	      0.22852070	      9.75409708	    -16.06496611	     -7.49999987	      9.58384953	     -0.52412093	     -6.59675702	     16.46445704	      0.28735898	      7.60906575	    -18.89199083	     -7.49999987	     -3.81990134	     -3.37627212	     -2.14200212	     16.49318861	    -50.72084922	    -35.20805574	     52.41690881	     98.23996252	    -39.29590330	    -24.50211132	    -73.49480382	     39.76810526	     88.94434365
      3.06250000	    -10.71790669	      1.48535481	      1.72364837	      0.59791496	      0.94423263	     -0.21096859	      5.56364635	     -8.79855279	     -5.51339825	     13.46568555	      0.23502055	     10.51584446	    -16.68709878	     -7.49999987	      9.73996908	     -0.52594532	     -6.53565966	     17.27771339	      0.30155299	      8.08820246	    -19.17925428	     -7.49999987	     -4.16402650	     -3.22623614	     -1.92933622	     16.37349059	    -50.41109991	    -35.12341409	     52.69208546	     98.01892770	    -38.46249716	    -23.83046118	    -73.47251948	     40.13333099	     88.77607291
      3.06666670	    -10.54518199	      1.52529392	      1.84581291	      0.59894874	      0.94698865	     -0.21034960	      5.43881480	     -8.71417845	     -4.83299775	     13.80132033	      0.24087848	     10.21847854	    -18.21699819	     -7.49999987	      9.96169181	     -0.55704153	     -6.59021024	     18.14566331	      0.31670157	      8.14803893	    -19.53932777	     -7.49999987	     -4.80518579	     -3.19746853	     -0.27773786	     12.02689600	    -49.95653546	    -39.50682917	     55.53682797	     99.30390284	    -35.42728148	    -23.56448075	    -75.03982244	     41.52491907	     90.67629900
      3.07083330	    -10.27045791	      1.49983230	      2.03352750	      0.59881370	      0.94717220	     -0.20852553	      5.43681757	     -8.63331002	     -4.45550983	     14.41144076	      0.25152709	     10.39878847	    -19.07633364	     -7.49999987	     10.26634411	     -0.73025753	     -6.71769659	     19.23494129	      0.33571306	      8.28807210	    -19.77986175	     -7.49999987	     -5.47837793	     -3.08067665	     -0.00753979	     11.78738494	    -49.35791259	    -39.38927381	     56.15831750	     98.74112488	    -34.15673511	    -22.96301563	    -74.92977459	     42.24974782	     89.91643147
      3.07500000	    -10.11979769	      1.49200140	      2.12581916	      0.60186179	      0.94613631	     -0.21074325	      5.68619438	     -8.59056776	     -4.04889113	     15.19488440	      0.26520076	     10.11642081	    -20.32401237	     -7.49999987	     10.53524130	     -0.88391951	     -6.74023595	     20.10547869	      0.35090680	      8.78140657	    -19.06118058	     -7.49999987	     -5.92997475	     -3.01982691	      0.62211391	     11.28948121	    -48.56574980	    -39.97293196	     56.74814520	     99.15582946	    -32.10549352	    -22.66676864	    -76.18522824	     42.39361700	     90.12192731
      3.07916670	     -9.77760442	      1.43082848	      2.24190142	      0.60060314	      0.94161863	     -0.20658482	      5.84291063	     -8.51841300	     -3.91971057	     16.26736080	      0.28391901	     10.49543630	    -20.83728684	     -7.49999987	     10.74731691	     -1.17997669	     -6.89380442	     21.20813009	      0.37015170	      9.25392178	    -18.80422999	     -7.49999987	     -6.68045429	     -2.99255994	      1.22025907	     11.10624740	    -47.86795176	    -40.18750334	     56.74312843	     96.87874632	    -30.49884229	    -22.58821459	    -75.93235841	     43.04569081	     88.42851548
      3.08333330	     -9.75375474	      1.42184291	      2.35996892	      0.60508797	      0.94940150	     -0.20635020	      6.28019012	     -8.47886608	     -3.97190593	     17.32214873	      0.30232853	     10.05976567	    -21.60159580	     -7.49999987	     11.05038569	     -1.39475478	     -6.86043325	     22.07653681	      0.38530825	      9.28497008	    -18.52988918	     -7.49999987	     -6.93951624	     -2.98734521	      2.39447356	      9.43736878	    -46.43766374	    -43.42882088	     57.73004894	    101.96582615	    -27.83799306	    -22.41942578	    -77.11262099	     43.22211416	     92.83929027
      3.08750000	     -9.58452694	      1.36377036	      2.45575080	      0.60632339	      0.94870959	     -0.20676410	      6.62455844	     -8.39051591	     -4.19496018	     18.49194752	      0.32274537	      9.79381888	    -22.22000232	     -7.49999987	     11.15722276	     -1.64885004	     -6.70826244	     22.85315307	      0.39886277	      9.45090268	    -18.25200131	     -7.49999987	     -7.33207606	     -2.96807990	      2.57217500	      9.98769494	    -45.17458125	    -43.26250114	     57.49769013	    102.00052220	    -26.38332665	    -22.08005477	    -77.41988134	     43.14697916	     93.29877664
